<svg width="64" height="64" xmlns="http://www.w3.org/2000/svg">
  <!-- 16-bit pixel art Spider Silk -->
  <rect width="64" height="64" fill="transparent"/>
  
  <!-- Silk bundle -->
  <defs>
    <linearGradient id="silkSheen" x1="0%" y1="0%" x2="100%" y2="100%">
      <stop offset="0%" style="stop-color:#ffffff;stop-opacity:1" />
      <stop offset="50%" style="stop-color:#e8e8ff;stop-opacity:1" />
      <stop offset="100%" style="stop-color:#d0d0e8;stop-opacity:1" />
    </linearGradient>
  </defs>
  
  <!-- Main silk strands -->
  <rect x="20" y="16" width="24" height="32" fill="url(#silkSheen)"/>
  <rect x="16" y="20" width="32" height="24" fill="url(#silkSheen)"/>
  
  <!-- Individual threads -->
  <rect x="18" y="18" width="4" height="28" fill="#f8f8ff"/>
  <rect x="26" y="16" width="4" height="32" fill="#f0f0ff"/>
  <rect x="34" y="18" width="4" height="28" fill="#f8f8ff"/>
  <rect x="42" y="20" width="4" height="24" fill="#f0f0ff"/>
  
  <!-- Web pattern details -->
  <line x1="16" y1="24" x2="48" y2="24" stroke="#ffffff" stroke-width="1" opacity="0.6"/>
  <line x1="16" y1="32" x2="48" y2="32" stroke="#ffffff" stroke-width="1" opacity="0.6"/>
  <line x1="16" y1="40" x2="48" y2="40" stroke="#ffffff" stroke-width="1" opacity="0.6"/>
  
  <!-- Shimmer effect -->
  <rect x="22" y="22" width="4" height="4" fill="#ffffff" opacity="0.8"/>
  <rect x="38" y="28" width="4" height="4" fill="#ffffff" opacity="0.8"/>
  <rect x="30" y="36" width="4" height="4" fill="#ffffff" opacity="0.8"/>
  
  <!-- Black outline -->
  <rect x="16" y="16" width="32" height="32" fill="none" stroke="#000000" stroke-width="2"/>
</svg>
